<?xml version="1.0" encoding="UTF-8" standalone="no"?>
<!-- Created with Inkscape (http://www.inkscape.org/) -->

<svg
   xmlns:dc="http://purl.org/dc/elements/1.1/"
   xmlns:cc="http://creativecommons.org/ns#"
   xmlns:rdf="http://www.w3.org/1999/02/22-rdf-syntax-ns#"
   xmlns:svg="http://www.w3.org/2000/svg"
   xmlns="http://www.w3.org/2000/svg"
   xmlns:sodipodi="http://sodipodi.sourceforge.net/DTD/sodipodi-0.dtd"
   xmlns:inkscape="http://www.inkscape.org/namespaces/inkscape"
   width="50"
   height="50"
   id="svg3336"
   version="1.1"
   inkscape:version="0.48.2 r9819"
   sodipodi:docname="assistant6.svg">
  <title
     id="title3408">personnage</title>
  <defs
     id="defs3338">
    <inkscape:perspective
       sodipodi:type="inkscape:persp3d"
       inkscape:vp_x="0 : 526.18109 : 1"
       inkscape:vp_y="0 : 1000 : 0"
       inkscape:vp_z="744.09448 : 526.18109 : 1"
       inkscape:persp3d-origin="372.04724 : 350.78739 : 1"
       id="perspective3344" />
    <inkscape:perspective
       id="perspective3315"
       inkscape:persp3d-origin="0.5 : 0.33333333 : 1"
       inkscape:vp_z="1 : 0.5 : 1"
       inkscape:vp_y="0 : 1000 : 0"
       inkscape:vp_x="0 : 0.5 : 1"
       sodipodi:type="inkscape:persp3d" />
    <inkscape:perspective
       id="perspective3592"
       inkscape:persp3d-origin="0.5 : 0.33333333 : 1"
       inkscape:vp_z="1 : 0.5 : 1"
       inkscape:vp_y="0 : 1000 : 0"
       inkscape:vp_x="0 : 0.5 : 1"
       sodipodi:type="inkscape:persp3d" />
    <inkscape:perspective
       id="perspective3680"
       inkscape:persp3d-origin="0.5 : 0.33333333 : 1"
       inkscape:vp_z="1 : 0.5 : 1"
       inkscape:vp_y="0 : 1000 : 0"
       inkscape:vp_x="0 : 0.5 : 1"
       sodipodi:type="inkscape:persp3d" />
  </defs>
  <sodipodi:namedview
     id="base"
     pagecolor="#ffffff"
     bordercolor="#666666"
     borderopacity="1.0"
     inkscape:pageopacity="0.0"
     inkscape:pageshadow="2"
     inkscape:zoom="3.959798"
     inkscape:cx="72.722673"
     inkscape:cy="35.137092"
     inkscape:document-units="px"
     inkscape:current-layer="layer1"
     showgrid="false"
     inkscape:window-width="1261"
     inkscape:window-height="639"
     inkscape:window-x="0"
     inkscape:window-y="45"
     inkscape:window-maximized="0" />
  <metadata
     id="metadata3341">
    <rdf:RDF>
      <cc:Work
         rdf:about="">
        <dc:format>image/svg+xml</dc:format>
        <dc:type
           rdf:resource="http://purl.org/dc/dcmitype/StillImage" />
        <dc:title>personnage</dc:title>
        <dc:creator>
          <cc:Agent>
            <dc:title>Antoine Bardelli</dc:title>
          </cc:Agent>
        </dc:creator>
        <dc:rights>
          <cc:Agent>
            <dc:title>Creaives Commons 2.0 Paternité / Licence Art Libre</dc:title>
          </cc:Agent>
        </dc:rights>
        <dc:language>Fr</dc:language>
        <dc:source>http://bardelli.fr/</dc:source>
      </cc:Work>
    </rdf:RDF>
  </metadata>
  <g
     inkscape:label="Calque 1"
     inkscape:groupmode="layer"
     id="layer1"
     transform="translate(0,-1002.3622)">
    <path
       inkscape:connector-curvature="0"
       sodipodi:nodetypes="cssssssccsc"
       id="path4978-9-5-2"
       d="m 15.456805,1031.1153 c 0,0 -1.429217,1.461 -1.095983,3.4264 0.253825,1.497 0.292002,2.9613 3.195656,6.8874 2.038862,2.7567 4.482309,4.6584 7.279634,4.4993 0.0039,-3e-4 0.0076,2e-4 0.01152,0 2.797329,0.1591 5.240772,-1.7426 7.279634,-4.4993 2.903654,-3.9261 2.941831,-5.3904 3.195656,-6.8874 0.333252,-1.9654 -1.095965,-3.4264 -1.095965,-3.4264 2.932697,-9.806 -1.081836,-17.4134 -9.508975,-17.4213 l -0.06523,0.2463 c -2.795893,10.5571 -10.906842,5.01 -9.195946,17.175 z"
       style="fill:#ffffff;fill-opacity:1;stroke:#000000;stroke-width:1.77165353;stroke-miterlimit:4;stroke-dasharray:none" />
    <path
       style="fill:#000000;fill-opacity:1;stroke:none"
       d="m 25.365434,1009.4136 c -0.0253,10e-4 -0.038,0.029 -0.0625,0.031 -2.82647,0.094 -10.36655,1.6392 -13.71875,8.6875 -3.5758701,7.5184 -9.4563802,8.808 -8.9062502,10 0.27884,0.6041 1.33894,1.5274 2.71875,2.4687 -1.8949599,1.4622 -3.27983,2.1125 -3,2.7188 0.55012,1.1919 4.1325801,3.6538 7.2500001,4.9375 2.3118801,0.9519 5.1710501,1.5631 6.5000001,1.8125 -1.62195,-2.5645 -1.69789,-3.8024 -1.90625,-5.0313 -0.33323,-1.9653 1.09375,-3.4062 1.09375,-3.4062 -1.71089,-12.165 6.39161,-6.6304 9.1875,-17.1875 l 0.0625,-0.25 c 0.10716,10e-5 0.20919,0 0.3125,0 1.07463,3.8428 3.81026,10.3607 9.1875,20.8125 0,0 0.49143,-0.09 1.15625,-0.2187 -0.008,0.084 -0.0167,0.1642 -0.0312,0.25 -0.18842,1.1112 -0.28906,2.2171 -1.5,4.3125 0.14865,0.2907 0.28465,0.5466 0.4375,0.8437 0,0 4.13258,-0.6538 7.25,-1.9375 3.11742,-1.2836 6.66862,-3.7455 7.21875,-4.9375 0.27507,-0.596 -1.03447,-1.2138 -2.875,-2.625 1.43113,-0.9653 2.52662,-1.9431 2.8125,-2.5625 0.55014,-1.1919 -5.29913,-2.4815 -8.875,-10 -3.33979,-7.0221 -10.86508,-8.5837 -13.71875,-8.6875 -0.0222,-0.012 -0.0366,-0.027 -0.0625,-0.031 -0.17569,0 -0.39605,0 -0.53125,0 z"
       id="path4563-3-7-4" />
  </g>
</svg>
