<?xml version="1.0" encoding="UTF-8" standalone="no"?>
<!-- Created with Inkscape (http://www.inkscape.org/) -->

<svg
   xmlns:dc="http://purl.org/dc/elements/1.1/"
   xmlns:cc="http://creativecommons.org/ns#"
   xmlns:rdf="http://www.w3.org/1999/02/22-rdf-syntax-ns#"
   xmlns:svg="http://www.w3.org/2000/svg"
   xmlns="http://www.w3.org/2000/svg"
   xmlns:xlink="http://www.w3.org/1999/xlink"
   xmlns:sodipodi="http://sodipodi.sourceforge.net/DTD/sodipodi-0.dtd"
   xmlns:inkscape="http://www.inkscape.org/namespaces/inkscape"
   width="50"
   height="50"
   id="svg3336"
   version="1.1"
   inkscape:version="0.48.2 r9819"
   sodipodi:docname="assistant-preview.svg">
  <title
     id="title3408">personnage</title>
  <defs
     id="defs3338">
    <inkscape:perspective
       sodipodi:type="inkscape:persp3d"
       inkscape:vp_x="0 : 526.18109 : 1"
       inkscape:vp_y="0 : 1000 : 0"
       inkscape:vp_z="744.09448 : 526.18109 : 1"
       inkscape:persp3d-origin="372.04724 : 350.78739 : 1"
       id="perspective3344" />
    <inkscape:perspective
       id="perspective3315"
       inkscape:persp3d-origin="0.5 : 0.33333333 : 1"
       inkscape:vp_z="1 : 0.5 : 1"
       inkscape:vp_y="0 : 1000 : 0"
       inkscape:vp_x="0 : 0.5 : 1"
       sodipodi:type="inkscape:persp3d" />
    <inkscape:perspective
       id="perspective3592"
       inkscape:persp3d-origin="0.5 : 0.33333333 : 1"
       inkscape:vp_z="1 : 0.5 : 1"
       inkscape:vp_y="0 : 1000 : 0"
       inkscape:vp_x="0 : 0.5 : 1"
       sodipodi:type="inkscape:persp3d" />
    <inkscape:perspective
       id="perspective3680"
       inkscape:persp3d-origin="0.5 : 0.33333333 : 1"
       inkscape:vp_z="1 : 0.5 : 1"
       inkscape:vp_y="0 : 1000 : 0"
       inkscape:vp_x="0 : 0.5 : 1"
       sodipodi:type="inkscape:persp3d" />
    <linearGradient
       y2="17.818182"
       x2="75.272728"
       y1="5.454545"
       x1="76.909088"
       gradientTransform="matrix(0.8944099,0,0,1,7.0536418,1.4736287e-8)"
       gradientUnits="userSpaceOnUse"
       id="linearGradient3676"
       xlink:href="#linearGradient4192"
       inkscape:collect="always" />
    <linearGradient
       y2="17.818182"
       x2="75.272728"
       y1="5.454545"
       x1="76.909088"
       gradientTransform="matrix(0.8944099,0,0,1,7.0536418,1.4739991e-8)"
       gradientUnits="userSpaceOnUse"
       id="linearGradient2893"
       xlink:href="#linearGradient4192"
       inkscape:collect="always" />
    <linearGradient
       y2="17.818182"
       x2="75.272728"
       y1="5.454545"
       x1="76.909088"
       gradientTransform="matrix(0.8944099,0,0,1,7.0536418,1.4739991e-8)"
       gradientUnits="userSpaceOnUse"
       id="linearGradient2862"
       xlink:href="#linearGradient4192"
       inkscape:collect="always" />
    <filter
       id="filter4224"
       height="1.3619048"
       y="-0.18095238"
       width="1.2111111"
       x="-0.10555556"
       inkscape:collect="always">
      <feGaussianBlur
         id="feGaussianBlur4226"
         stdDeviation="1.1515151"
         inkscape:collect="always" />
    </filter>
    <filter
       id="filter4140"
       inkscape:collect="always">
      <feGaussianBlur
         id="feGaussianBlur4142"
         stdDeviation="19.809523"
         inkscape:collect="always" />
    </filter>
    <filter
       id="filter4475"
       inkscape:collect="always">
      <feGaussianBlur
         id="feGaussianBlur4477"
         stdDeviation="5.4252821"
         inkscape:collect="always" />
    </filter>
    <filter
       id="filter4471"
       height="1.3199247"
       y="-0.15996237"
       width="1.2805366"
       x="-0.1402683"
       inkscape:collect="always">
      <feGaussianBlur
         id="feGaussianBlur4473"
         stdDeviation="5.4252821"
         inkscape:collect="always" />
    </filter>
    <linearGradient
       gradientTransform="matrix(1.1489872,0,0,1.1489872,-29.584628,-66.757722)"
       gradientUnits="userSpaceOnUse"
       y2="412.70282"
       x2="6.3420935"
       y1="668.27142"
       x1="239.68733"
       id="linearGradient4485"
       xlink:href="#linearGradient4479"
       inkscape:collect="always" />
    <linearGradient
       id="linearGradient4479"
       inkscape:collect="always">
      <stop
         id="stop4481"
         offset="0"
         style="stop-color:#00aad4;stop-opacity:1;" />
      <stop
         id="stop4483"
         offset="1"
         style="stop-color:#00aad4;stop-opacity:0;" />
    </linearGradient>
    <linearGradient
       id="linearGradient4192"
       inkscape:collect="always">
      <stop
         id="stop4194"
         offset="0"
         style="stop-color:#d5e5ff;stop-opacity:1;" />
      <stop
         id="stop4196"
         offset="1"
         style="stop-color:#d5e5ff;stop-opacity:0;" />
    </linearGradient>
    <inkscape:perspective
       id="perspective36"
       inkscape:persp3d-origin="32 : 21.333333 : 1"
       inkscape:vp_z="64 : 32 : 1"
       inkscape:vp_y="0 : 1000 : 0"
       inkscape:vp_x="0 : 32 : 1"
       sodipodi:type="inkscape:persp3d" />
  </defs>
  <sodipodi:namedview
     id="base"
     pagecolor="#ffffff"
     bordercolor="#666666"
     borderopacity="1.0"
     inkscape:pageopacity="0.0"
     inkscape:pageshadow="2"
     inkscape:zoom="0.44"
     inkscape:cx="72.722673"
     inkscape:cy="35.137092"
     inkscape:document-units="px"
     inkscape:current-layer="layer1"
     showgrid="false"
     inkscape:window-width="1261"
     inkscape:window-height="977"
     inkscape:window-x="0"
     inkscape:window-y="45"
     inkscape:window-maximized="0" />
  <metadata
     id="metadata3341">
    <rdf:RDF>
      <cc:Work
         rdf:about="">
        <dc:format>image/svg+xml</dc:format>
        <dc:type
           rdf:resource="http://purl.org/dc/dcmitype/StillImage" />
        <dc:title>personnage</dc:title>
        <dc:creator>
          <cc:Agent>
            <dc:title>Antoine Bardelli</dc:title>
          </cc:Agent>
        </dc:creator>
        <dc:rights>
          <cc:Agent>
            <dc:title>Creaives Commons 2.0 Paternité / Licence Art Libre</dc:title>
          </cc:Agent>
        </dc:rights>
        <dc:language>Fr</dc:language>
        <dc:source>http://bardelli.fr/</dc:source>
      </cc:Work>
    </rdf:RDF>
  </metadata>
  <g
     inkscape:label="Calque 1"
     inkscape:groupmode="layer"
     id="layer1"
     transform="translate(0,-1002.3622)">
    <path
       inkscape:connector-curvature="0"
       sodipodi:nodetypes="cssssssccsc"
       id="path4978-9-5-2"
       d="m 15.456805,1031.1153 c 0,0 -1.429217,1.461 -1.095983,3.4264 0.253825,1.497 0.292002,2.9613 3.195656,6.8874 2.038862,2.7567 4.482309,4.6584 7.279634,4.4993 0.0039,-3e-4 0.0076,2e-4 0.01152,0 2.797329,0.1591 5.240772,-1.7426 7.279634,-4.4993 2.903654,-3.9261 2.941831,-5.3904 3.195656,-6.8874 0.333252,-1.9654 -1.095965,-3.4264 -1.095965,-3.4264 2.932697,-9.806 -1.081836,-17.4134 -9.508975,-17.4213 l -0.06523,0.2463 c -2.795893,10.5571 -10.906842,5.01 -9.195946,17.175 z"
       style="fill:#ffffff;fill-opacity:1;stroke:#000000;stroke-width:1.77165353;stroke-miterlimit:4;stroke-dasharray:none" />
    <path
       style="fill:#000000;fill-opacity:1;stroke:none"
       d="m 25.365434,1009.4136 c -0.0253,10e-4 -0.038,0.029 -0.0625,0.031 -2.82647,0.094 -10.36655,1.6392 -13.71875,8.6875 -3.5758701,7.5184 -9.4563802,8.808 -8.9062502,10 0.27884,0.6041 1.33894,1.5274 2.71875,2.4687 -1.8949599,1.4622 -3.27983,2.1125 -3,2.7188 0.55012,1.1919 4.1325801,3.6538 7.2500001,4.9375 2.3118801,0.9519 5.1710501,1.5631 6.5000001,1.8125 -1.62195,-2.5645 -1.69789,-3.8024 -1.90625,-5.0313 -0.33323,-1.9653 1.09375,-3.4062 1.09375,-3.4062 -1.71089,-12.165 6.39161,-6.6304 9.1875,-17.1875 l 0.0625,-0.25 c 0.10716,10e-5 0.20919,0 0.3125,0 1.07463,3.8428 3.81026,10.3607 9.1875,20.8125 0,0 0.49143,-0.09 1.15625,-0.2187 -0.008,0.084 -0.0167,0.1642 -0.0312,0.25 -0.18842,1.1112 -0.28906,2.2171 -1.5,4.3125 0.14865,0.2907 0.28465,0.5466 0.4375,0.8437 0,0 4.13258,-0.6538 7.25,-1.9375 3.11742,-1.2836 6.66862,-3.7455 7.21875,-4.9375 0.27507,-0.596 -1.03447,-1.2138 -2.875,-2.625 1.43113,-0.9653 2.52662,-1.9431 2.8125,-2.5625 0.55014,-1.1919 -5.29913,-2.4815 -8.875,-10 -3.33979,-7.0221 -10.86508,-8.5837 -13.71875,-8.6875 -0.0222,-0.012 -0.0366,-0.027 -0.0625,-0.031 -0.17569,0 -0.39605,0 -0.53125,0 z"
       id="path4563-3-7-4" />
    <g
       inkscape:label="Layer 1"
       id="layer1-0"
       transform="matrix(0.49086333,0,0,0.49086333,19.252264,1021.6119)">
      <g
         id="g3696">
        <g
           id="g3686">
          <rect
             inkscape:export-ydpi="67.5"
             inkscape:export-xdpi="67.5"
             inkscape:export-filename="C:\Documents and Settings\Venkat D\Desktop\stories\info.png"
             y="0"
             x="0"
             height="64"
             width="64"
             id="rect2171"
             style="opacity:0;fill:#ffffff;fill-opacity:1;stroke:#80797c;stroke-width:0;stroke-linecap:square;stroke-linejoin:miter;stroke-miterlimit:4;stroke-opacity:1;stroke-dasharray:none;stroke-dashoffset:0" />
          <path
             inkscape:export-filename="C:\Documents and Settings\Venkat D\Desktop\stories\info.png"
             inkscape:export-ydpi="67.5"
             inkscape:export-xdpi="67.5"
             sodipodi:type="arc"
             style="fill:#3771c8;fill-opacity:1;stroke:#204a87;stroke-width:10.63104153;stroke-linejoin:round;stroke-miterlimit:4;stroke-opacity:1;stroke-dasharray:none;stroke-dashoffset:0"
             id="path4431"
             sodipodi:cx="198.57143"
             sodipodi:cy="448.07648"
             sodipodi:rx="281.42856"
             sodipodi:ry="267.14285"
             d="m 479.99998,448.07648 c 0,147.53892 -125.99985,267.14285 -281.42855,267.14285 -155.428705,0 -281.428562,-119.60393 -281.428562,-267.14285 0,-147.53893 125.999857,-267.14286 281.428562,-267.14286 155.4287,0 281.42855,119.60393 281.42855,267.14286 z"
             transform="matrix(0.09406416,0,0,0.09406416,14.048806,-10.875236)" />
          <path
             transform="matrix(0.08695756,0,0,0.08695756,15.459974,-7.690936)"
             d="m 479.99998,448.07648 c 0,147.53892 -125.99985,267.14285 -281.42855,267.14285 -155.428705,0 -281.428562,-119.60393 -281.428562,-267.14285 0,-147.53893 125.999857,-267.14286 281.428562,-267.14286 155.4287,0 281.42855,119.60393 281.42855,267.14286 z"
             sodipodi:ry="267.14285"
             sodipodi:rx="281.42856"
             sodipodi:cy="448.07648"
             sodipodi:cx="198.57143"
             id="path4114"
             style="fill:#3465a4;fill-opacity:1;stroke:#2c2e9d;stroke-width:0;stroke-linejoin:round;stroke-miterlimit:4;stroke-opacity:1;stroke-dasharray:none;stroke-dashoffset:0;filter:url(#filter4140)"
             sodipodi:type="arc"
             inkscape:export-xdpi="67.5"
             inkscape:export-ydpi="67.5"
             inkscape:export-filename="C:\Documents and Settings\Venkat D\Desktop\stories\info.png" />
          <path
             inkscape:export-ydpi="67.5"
             inkscape:export-xdpi="67.5"
             inkscape:export-filename="C:\Documents and Settings\Venkat D\Desktop\stories\info.png"
             transform="matrix(0.09406416,0,0,0.09406416,1.8109116,-10.91344)"
             d="m 368.57142,308.07648 c 0,21.30241 -19.82739,38.57143 -44.28571,38.57143 -24.45833,0 -44.28572,-17.26902 -44.28572,-38.57143 0,-21.30242 19.82739,-38.57143 44.28572,-38.57143 24.45832,0 44.28571,17.26901 44.28571,38.57143 z"
             sodipodi:ry="38.57143"
             sodipodi:rx="44.285713"
             sodipodi:cy="308.07648"
             sodipodi:cx="324.28571"
             id="path3450"
             style="fill:#333333;fill-opacity:1;stroke:#484ba6;stroke-width:4.88952875;stroke-linejoin:round;stroke-miterlimit:4;stroke-opacity:1;stroke-dasharray:none;stroke-dashoffset:0;filter:url(#filter4471)"
             sodipodi:type="arc" />
          <path
             inkscape:export-ydpi="67.5"
             inkscape:export-xdpi="67.5"
             inkscape:export-filename="C:\Documents and Settings\Venkat D\Desktop\stories\info.png"
             transform="matrix(0.09406416,0,0,0.09406416,80.96877,-7.3814268)"
             sodipodi:nodetypes="ccccccccccc"
             id="path3452"
             d="m -575.83683,339.58915 0.71428,41.42857 31.42857,10e-6 0,119.99999 -45.71429,1.42857 10e-6,58.57143 148.57142,-2.85714 0,-60 -35.71428,0.71429 1.42857,-157.85715 -100.71428,-1.42857 z"
             style="fill:#333333;fill-rule:evenodd;stroke:#3b3f82;stroke-width:6.52208614;stroke-linecap:butt;stroke-linejoin:miter;stroke-miterlimit:4;stroke-opacity:1;stroke-dasharray:none;filter:url(#filter4475)"
             inkscape:connector-curvature="0" />
          <path
             inkscape:export-ydpi="67.5"
             inkscape:export-xdpi="67.5"
             inkscape:export-filename="C:\Documents and Settings\Venkat D\Desktop\stories\info.png"
             style="fill:#ffffff;fill-rule:evenodd;stroke:#3b3f82;stroke-width:0.03829557;stroke-linecap:butt;stroke-linejoin:miter;stroke-miterlimit:4;stroke-opacity:1;stroke-dasharray:none"
             d="m 25.852939,25.511949 0.06719,3.896951 2.956305,0 0,11.287699 -4.300074,0.134382 0,5.509474 13.975245,-0.26875 0,-5.643856 -3.359434,0.06718 0.134382,-14.848701 -9.473615,-0.134381 z"
             id="path4437"
             sodipodi:nodetypes="ccccccccccc"
             inkscape:connector-curvature="0" />
          <path
             transform="matrix(1.1180556,0,0,1,-50.068183,6.1818185)"
             d="m 88.363637,10.181818 c 0,4.217447 -5.861,7.636364 -13.090909,7.636364 -7.229909,0 -13.090909,-3.418917 -13.090909,-7.636364 0,-4.2174471 5.861,-7.6363635 13.090909,-7.6363635 7.229909,0 13.090909,3.4189164 13.090909,7.6363635 z"
             sodipodi:ry="7.6363635"
             sodipodi:rx="13.090909"
             sodipodi:cy="10.181818"
             sodipodi:cx="75.272728"
             id="path4154"
             style="fill:url(#linearGradient3676);fill-opacity:1;stroke:#80797c;stroke-width:0;stroke-linecap:square;stroke-linejoin:miter;stroke-miterlimit:4;stroke-opacity:1;stroke-dasharray:none;stroke-dashoffset:0;filter:url(#filter4224)"
             sodipodi:type="arc" />
          <path
             inkscape:export-ydpi="67.5"
             inkscape:export-xdpi="67.5"
             inkscape:export-filename="C:\Documents and Settings\Venkat D\Desktop\stories\info.png"
             sodipodi:type="arc"
             style="fill:#ffffff;fill-opacity:1;stroke:#484ba6;stroke-width:0.41119269;stroke-linejoin:round;stroke-miterlimit:4;stroke-opacity:1;stroke-dasharray:none;stroke-dashoffset:0"
             id="path4435"
             sodipodi:cx="324.28571"
             sodipodi:cy="308.07648"
             sodipodi:rx="44.285713"
             sodipodi:ry="38.57143"
             d="m 368.57142,308.07648 c 0,21.30241 -19.82739,38.57143 -44.28571,38.57143 -24.45833,0 -44.28572,-17.26902 -44.28572,-38.57143 0,-21.30242 19.82739,-38.57143 44.28572,-38.57143 24.45832,0 44.28571,17.26901 44.28571,38.57143 z"
             transform="matrix(0.09406416,0,0,0.09406416,0.8607096,-9.9632485)" />
        </g>
      </g>
    </g>
  </g>
</svg>
